#Comment line ignore any data following # character 
#Hierarchical Translation and Rotation (.htr) file 
[Header]	
#Header keywords are followed by a single value 
FileType HTR		#Single word string
DataType HTRS		#Translation followed by rotation and scale data
FileVersion 1		#integer
NumSegments 64		#integer
NumFrames 3		#integer
DataFrameRate 30		#integer, data frame rate in this file
EulerRotationOrder ZYX
CalibrationUnits mm
RotationUnits Degrees
GlobalAxisofGravity Y
BoneLengthAxis Y
ScaleFactor 1.00
[SegmentNames&Hierarchy]
#CHILD	PARENT
Pinger_Root GLOBAL
Pelvis Pinger_Root
L_Hip Pelvis
R_Hip Pelvis
Rear_Leg01 Pelvis
Spine1 Pelvis
L_Leg01 L_Hip
L_Leg02 L_Leg01
L_Leg03 L_Leg02
L_Foot L_Leg03
L_Toe1_01 L_Foot
L_Toe2_01 L_Foot
L_Toe3_01 L_Foot
planeAlignerLeft L_Foot
L_Toe1_02 L_Toe1_01
L_Toe1_03 L_Toe1_02
L_Toe2_02 L_Toe2_01
L_Toe2_03 L_Toe2_02
L_Toe3_02 L_Toe3_01
L_Toe3_03 L_Toe3_02
planeLockWeightLeft planeAlignerLeft
R_Leg01 R_Hip
R_Leg02 R_Leg01
R_Leg03 R_Leg02
R_Foot R_Leg03
planeAlignerRight R_Foot
R_Toe1_01 R_Foot
R_Toe2_01 R_Foot
R_Toe3_01 R_Foot
planeLockWeightRight planeAlignerRight
R_Toe1_02 R_Toe1_01
R_Toe1_03 R_Toe1_02
R_Toe2_02 R_Toe2_01
R_Toe2_03 R_Toe2_02
R_Toe3_02 R_Toe3_01
R_Toe3_03 R_Toe3_02
Rear_Leg02 Rear_Leg01
Rear_Leg03 Rear_Leg02
Rear_Leg04 Rear_Leg03
Rear_Foot Rear_Leg04
planeAlignerCenter Rear_Foot
Rear_Toe1_01 Rear_Foot
Rear_Toe2_01 Rear_Foot
Rear_Toe3_01 Rear_Foot
planeLockWeightCenter planeAlignerCenter
Rear_Toe1_02 Rear_Toe1_01
Rear_Toe1_03 Rear_Toe1_02
Rear_Toe2_02 Rear_Toe2_01
Rear_Toe2_03 Rear_Toe2_02
Rear_Toe3_02 Rear_Toe3_01
Rear_Toe3_03 Rear_Toe3_02
Back_Bone Spine1
Head Spine1
Motor_Bone Back_Bone
Ping_Mechanism Back_Bone
BN_LookIK Head
bottomMouth Head
L_Mouth01 Head
L_mouthFront Head
mouthGun Head
R_Mouth01 Head
R_mouthFront Head
TopMouth Head
weapon_bone Head
[BasePosition]
#SegmentName Tx, Ty, Tz, Rx, Ry, Rz, BoneLength
Pinger_Root 0.000000 0.000000 0.000000 -90.000000 0.000000 0.000000 10.000000 
Pelvis 0.000000 0.000000 0.000000 0.000000 0.000000 0.000000 10.000000 
L_Hip 0.000000 0.000000 0.000000 0.000000 0.000000 0.000000 10.000000 
R_Hip 0.000000 0.000000 0.000000 0.000000 0.000000 0.000000 10.000000 
Rear_Leg01 0.000000 0.000000 0.000000 0.000000 0.000000 0.000000 10.000000 
Spine1 0.000000 0.000000 0.000000 0.000000 0.000000 0.000000 10.000000 
L_Leg01 0.000000 0.000000 0.000000 0.000000 0.000000 0.000000 10.000000 
L_Leg02 0.000000 0.000000 0.000000 0.000000 0.000000 0.000000 10.000000 
L_Leg03 0.000000 0.000000 0.000000 0.000000 0.000000 0.000000 10.000000 
L_Foot 0.000000 0.000000 0.000000 0.000000 0.000000 0.000000 10.000000 
L_Toe1_01 0.000000 0.000000 0.000000 0.000000 0.000000 0.000000 10.000000 
L_Toe2_01 0.000000 0.000000 0.000000 0.000000 0.000000 0.000000 10.000000 
L_Toe3_01 0.000000 0.000000 0.000000 0.000000 0.000000 0.000000 10.000000 
planeAlignerLeft 0.000000 0.000000 0.000000 0.000000 0.000000 0.000000 10.000000 
L_Toe1_02 0.000000 0.000000 0.000000 0.000000 0.000000 0.000000 10.000000 
L_Toe1_03 0.000000 0.000000 0.000000 0.000000 0.000000 0.000000 10.000000 
L_Toe2_02 0.000000 0.000000 0.000000 0.000000 0.000000 0.000000 10.000000 
L_Toe2_03 0.000000 0.000000 0.000000 0.000000 0.000000 0.000000 10.000000 
L_Toe3_02 0.000000 0.000000 0.000000 0.000000 0.000000 0.000000 10.000000 
L_Toe3_03 0.000000 0.000000 0.000000 0.000000 0.000000 0.000000 10.000000 
planeLockWeightLeft 0.000000 0.000000 0.000000 0.000000 0.000000 0.000000 10.000000 
R_Leg01 0.000000 0.000000 0.000000 0.000000 0.000000 0.000000 10.000000 
R_Leg02 0.000000 0.000000 0.000000 0.000000 0.000000 0.000000 10.000000 
R_Leg03 0.000000 0.000000 0.000000 0.000000 0.000000 0.000000 10.000000 
R_Foot 0.000000 0.000000 0.000000 0.000000 0.000000 0.000000 10.000000 
planeAlignerRight 0.000000 0.000000 0.000000 0.000000 0.000000 0.000000 10.000000 
R_Toe1_01 0.000000 0.000000 0.000000 0.000000 0.000000 0.000000 10.000000 
R_Toe2_01 0.000000 0.000000 0.000000 0.000000 0.000000 0.000000 10.000000 
R_Toe3_01 0.000000 0.000000 0.000000 0.000000 0.000000 0.000000 10.000000 
planeLockWeightRight 0.000000 0.000000 0.000000 0.000000 0.000000 0.000000 10.000000 
R_Toe1_02 0.000000 0.000000 0.000000 0.000000 0.000000 0.000000 10.000000 
R_Toe1_03 0.000000 0.000000 0.000000 0.000000 0.000000 0.000000 10.000000 
R_Toe2_02 0.000000 0.000000 0.000000 0.000000 0.000000 0.000000 10.000000 
R_Toe2_03 0.000000 0.000000 0.000000 0.000000 0.000000 0.000000 10.000000 
R_Toe3_02 0.000000 0.000000 0.000000 0.000000 0.000000 0.000000 10.000000 
R_Toe3_03 0.000000 0.000000 0.000000 0.000000 0.000000 0.000000 10.000000 
Rear_Leg02 0.000000 0.000000 0.000000 0.000000 0.000000 0.000000 10.000000 
Rear_Leg03 0.000000 0.000000 0.000000 0.000000 0.000000 0.000000 10.000000 
Rear_Leg04 0.000000 0.000000 0.000000 0.000000 0.000000 0.000000 10.000000 
Rear_Foot 0.000000 0.000000 0.000000 0.000000 0.000000 0.000000 10.000000 
planeAlignerCenter 0.000000 0.000000 0.000000 0.000000 0.000000 0.000000 10.000000 
Rear_Toe1_01 0.000000 0.000000 0.000000 0.000000 0.000000 0.000000 10.000000 
Rear_Toe2_01 0.000000 0.000000 0.000000 0.000000 0.000000 0.000000 10.000000 
Rear_Toe3_01 0.000000 0.000000 0.000000 0.000000 0.000000 0.000000 10.000000 
planeLockWeightCenter 0.000000 0.000000 0.000000 0.000000 0.000000 0.000000 10.000000 
Rear_Toe1_02 0.000000 0.000000 0.000000 0.000000 0.000000 0.000000 10.000000 
Rear_Toe1_03 0.000000 0.000000 0.000000 0.000000 0.000000 0.000000 10.000000 
Rear_Toe2_02 0.000000 0.000000 0.000000 0.000000 0.000000 0.000000 10.000000 
Rear_Toe2_03 0.000000 0.000000 0.000000 0.000000 0.000000 0.000000 10.000000 
Rear_Toe3_02 0.000000 0.000000 0.000000 0.000000 0.000000 0.000000 10.000000 
Rear_Toe3_03 0.000000 0.000000 0.000000 0.000000 0.000000 0.000000 10.000000 
Back_Bone 0.000000 0.000000 0.000000 0.000000 0.000000 0.000000 10.000000 
Head 0.000000 0.000000 0.000000 0.000000 0.000000 0.000000 10.000000 
Motor_Bone 0.000000 0.000000 0.000000 0.000000 0.000000 0.000000 10.000000 
Ping_Mechanism 0.000000 0.000000 0.000000 0.000000 0.000000 0.000000 10.000000 
BN_LookIK 0.000000 0.000000 0.000000 0.000000 0.000000 0.000000 10.000000 
bottomMouth 0.000000 0.000000 0.000000 0.000000 0.000000 0.000000 10.000000 
L_Mouth01 0.000000 0.000000 0.000000 0.000000 0.000000 0.000000 10.000000 
L_mouthFront 0.000000 0.000000 0.000000 0.000000 0.000000 0.000000 10.000000 
mouthGun 0.000000 0.000000 0.000000 0.000000 0.000000 0.000000 10.000000 
R_Mouth01 0.000000 0.000000 0.000000 0.000000 0.000000 0.000000 10.000000 
R_mouthFront 0.000000 0.000000 0.000000 0.000000 0.000000 0.000000 10.000000 
TopMouth 0.000000 0.000000 0.000000 0.000000 0.000000 0.000000 10.000000 
weapon_bone 0.000000 0.000000 0.000000 0.000000 0.000000 0.000000 10.000000 
#Beginning of Data. Separated by tabs
#Fr	Tx	Ty	Tz	Rx	Ry	Rz	SF
[Pinger_Root]
76 -0.000020 2500.000000 0.000000 -0.000075 -0.000000 -0.000020 2500.000000
77 -0.000020 2500.000000 0.000000 -0.000075 -0.000000 -0.000020 2500.000000
78 -0.000020 2500.000000 0.000000 -0.000075 -0.000000 -0.000020 2500.000000
[Pelvis]
76 76.551674 899.955139 4429.495117 -92.197884 -84.459877 84.860153 4520.642090
77 75.047340 904.884766 4431.292480 -94.085388 -84.901489 86.666580 4523.361816
78 73.543007 909.814331 4433.089844 -96.320053 -85.336876 88.820213 4526.085938
[L_Hip]
76 5.766392 125.831482 872.656799 160.007889 -46.984470 121.629021 881.701050
77 5.766392 125.831482 872.656799 160.064026 -46.372070 121.906395 881.701050
78 5.766392 125.831482 872.656799 160.094086 -46.094398 122.032654 881.701050
[R_Hip]
76 5.765438 125.836372 -872.654907 37.998520 51.248032 125.452080 881.699829
77 5.765438 125.836372 -872.654907 38.032497 50.766716 125.538467 881.699829
78 5.765438 125.836372 -872.654907 38.065006 50.285389 125.623535 881.699829
[Rear_Leg01]
76 -192.298416 -925.602966 -0.001907 173.720963 3.850196 -156.859238 945.367432
77 -192.298416 -925.602966 -0.001907 173.397781 3.603776 -157.115616 945.367432
78 -192.298416 -925.602966 -0.001907 173.279770 3.500508 -157.442703 945.367432
[Spine1]
76 290.604584 5.007505 0.000477 6.761653 -1.071283 17.847458 290.647736
77 290.604584 5.007505 0.000477 6.905181 -0.938469 18.255329 290.647736
78 290.604584 5.007505 0.000477 7.049635 -0.806685 18.663494 290.647736
[L_Leg01]
76 761.932007 -0.002384 -0.069261 22.644966 -16.725674 -12.251048 761.932068
77 761.932007 -0.002384 -0.069261 22.728577 -16.351051 -11.321270 761.932068
78 761.932007 -0.002384 -0.069261 22.818327 -15.977787 -10.392682 761.932068
[L_Leg02]
76 1441.140503 -0.000954 -0.000715 2.468444 -0.135492 -125.032585 1441.140503
77 1441.140503 -0.000954 -0.000715 2.510103 -0.149786 -126.261566 1441.140503
78 1441.140503 -0.000954 -0.000715 2.552054 -0.163182 -127.490417 1441.140503
[L_Leg03]
76 1686.963989 -0.000715 -0.000954 -0.033155 0.015957 119.473640 1686.963989
77 1686.963989 -0.000715 -0.000954 -0.032352 0.015646 119.157272 1686.963989
78 1686.963989 -0.000715 -0.000954 -0.031549 0.015338 118.840881 1686.963989
[L_Foot]
76 3041.570068 -30.715107 11.297464 1.831242 12.813648 53.130821 3041.746094
77 3041.570068 -30.715107 11.297464 1.869538 12.904365 53.867924 3041.746094
78 3041.570068 -30.715107 11.297464 1.909040 12.994587 54.605316 3041.746094
[L_Toe1_01]
76 -188.216690 -224.732346 -21.137953 93.569626 -6.680436 -172.179428 293.899567
77 -188.216690 -224.732346 -21.137953 93.599571 -6.716806 -172.137604 293.899567
78 -188.216690 -224.732346 -21.137953 93.629478 -6.753198 -172.095779 293.899567
[L_Toe2_01]
76 200.746536 -219.926590 148.838394 -89.767868 -25.872925 -51.634491 332.896027
77 200.746536 -219.926590 148.838394 -89.883095 -26.053408 -52.036686 332.896027
78 200.746536 -219.926590 148.838394 -89.918594 -26.117851 -52.196861 332.896027
[L_Toe3_01]
76 188.832520 -219.859131 -191.078659 -100.097137 14.535886 -66.144897 347.140900
77 188.832520 -219.859131 -191.078659 -99.976990 14.266387 -66.724266 347.140900
78 188.832520 -219.859131 -191.078659 -99.919586 14.133338 -67.019104 347.140900
[planeAlignerLeft]
76 37.376801 -584.343018 96.018478 169.287857 -76.897934 90.445854 593.357666
77 36.330692 -586.412720 97.231255 169.293488 -76.753250 90.329727 595.528076
78 35.284622 -588.482361 98.443970 169.297806 -76.608521 90.214874 597.702026
[L_Toe1_02]
76 413.761139 0.000477 0.000000 0.001384 -25.983080 0.001384 413.761139
77 413.761139 0.000477 0.000000 0.001384 -25.989046 0.001384 413.761139
78 413.761139 0.000477 0.000000 0.001384 -25.995022 0.001384 413.761139
[L_Toe1_03]
76 464.317322 0.000358 -0.000089 0.003840 54.405621 0.003840 464.317322
77 464.317322 0.000358 -0.000089 0.003809 54.110321 0.003809 464.317322
78 464.317322 0.000358 -0.000089 0.003779 53.815006 0.003779 464.317322
[L_Toe2_02]
76 342.235809 -0.000477 0.000238 0.001187 -72.815567 0.001187 342.235809
77 342.235809 -0.000477 0.000238 0.001187 -72.663986 0.001187 342.235809
78 342.235809 -0.000477 0.000238 0.001187 -72.512360 0.001187 342.235809
[L_Toe2_03]
76 420.210846 -0.000715 0.000000 0.002850 86.337883 0.004949 420.210846
77 420.210846 -0.000715 0.000000 0.013112 86.064377 0.014511 420.210846
78 420.210846 -0.000715 0.000000 0.022085 85.790756 0.022785 420.210846
[L_Toe3_02]
76 329.270111 0.000954 0.000000 0.001177 -80.976372 0.001177 329.270111
77 329.270111 0.000954 0.000000 0.001177 -80.855659 0.001177 329.270111
78 329.270111 0.000954 0.000000 0.001177 -80.734886 0.001177 329.270111
[L_Toe3_03]
76 439.137451 -0.001907 0.000954 -179.996613 77.167122 -179.993088 439.137451
77 439.137451 -0.001907 0.000954 -179.996460 77.570076 -179.992935 439.137451
78 439.137451 -0.001907 0.000954 -179.996277 77.972939 -179.992752 439.137451
[planeLockWeightLeft]
76 1000.000366 -0.000223 -0.000097 -0.011826 -0.004376 0.005620 1000.000366
77 1000.000488 -0.000239 -0.000096 -0.011826 -0.004376 0.005620 1000.000488
78 1000.000488 -0.000256 -0.000096 -0.011826 -0.004376 0.005620 1000.000488
[R_Leg01]
76 761.455627 -0.001907 -0.000358 122.154068 -9.206855 35.160732 761.455688
77 761.455627 -0.001907 -0.000358 121.521126 -8.826535 35.373207 761.455688
78 761.455627 -0.001907 -0.000358 120.890282 -8.443941 35.581181 761.455688
[R_Leg02]
76 1441.140625 0.000000 -0.000238 -1.393123 -0.225808 -118.457527 1441.140625
77 1441.140625 0.000000 -0.000238 -1.382287 -0.220565 -118.546227 1441.140625
78 1441.140625 0.000000 -0.000238 -1.371460 -0.215305 -118.634949 1441.140625
[R_Leg03]
76 1686.963989 0.000954 0.001431 0.081439 -0.045573 132.307953 1686.963989
77 1686.963989 0.000954 0.001431 0.081044 -0.044252 132.038666 1686.963989
78 1686.963989 0.000954 0.001431 0.080642 -0.042933 131.769363 1686.963989
[R_Foot]
76 3041.560059 -30.531288 -11.204481 -1.025685 -22.644936 54.776566 3041.734131
77 3041.560059 -30.531288 -11.204481 -0.877950 -23.304390 54.909245 3041.734131
78 3041.560059 -30.531288 -11.204481 -0.731153 -23.964115 55.040733 3041.734131
[planeAlignerRight]
76 -127.149490 -574.018616 -312.904510 -36.580406 -71.378616 -64.320488 666.013184
77 -127.149345 -574.018677 -312.904236 -36.579777 -71.370720 -64.325165 666.013062
78 -127.149193 -574.018799 -312.903961 -36.579113 -71.362785 -64.329895 666.013000
[R_Toe1_01]
76 -188.383347 -224.864899 21.052242 76.446625 -0.445074 -172.721527 294.101532
77 -188.383347 -224.864899 21.052242 76.510010 -0.438981 -172.722977 294.101532
78 -188.383347 -224.864899 21.052242 76.573387 -0.432887 -172.724426 294.101532
[R_Toe2_01]
76 200.637817 -220.002121 -148.787384 -92.169678 32.734173 -59.177887 332.857574
77 200.637817 -220.002121 -148.787384 -92.084442 32.762100 -59.178837 332.857574
78 200.637817 -220.002121 -148.787384 -91.999199 32.790043 -59.179752 332.857574
[R_Toe3_01]
76 188.606735 -220.092957 191.126343 -72.787605 -8.310534 -73.711357 347.192566
77 188.606735 -220.092957 191.126343 -72.875282 -8.339768 -73.720398 347.192566
78 188.606735 -220.092957 191.126343 -72.962959 -8.369025 -73.729416 347.192566
[planeLockWeightRight]
76 1000.000000 0.000305 -0.000438 -0.011823 -0.004379 -0.000027 1000.000000
77 1000.000000 0.000305 -0.000438 -0.011823 -0.004379 -0.000027 1000.000000
78 1000.000000 0.000305 -0.000438 -0.011823 -0.004379 -0.000027 1000.000000
[R_Toe1_02]
76 413.762085 0.000477 -0.000119 0.001394 -24.662292 0.001394 413.762085
77 413.762085 0.000477 -0.000119 0.001394 -24.661730 0.001394 413.762085
78 413.762085 0.000477 -0.000119 0.001394 -24.661167 0.001394 413.762085
[R_Toe1_03]
76 464.317810 0.000000 0.001088 0.006620 69.578316 0.006620 464.317810
77 464.317810 0.000000 0.001088 0.006621 69.581329 0.006621 464.317810
78 464.317810 0.000000 0.001088 0.006622 69.584343 0.006622 464.317810
[R_Toe2_02]
76 342.234741 -0.000954 0.000238 0.001197 -67.221245 0.001197 342.234741
77 342.234741 -0.000954 0.000238 0.001197 -67.221245 0.001197 342.234741
78 342.234741 -0.000954 0.000238 0.001197 -67.221245 0.001197 342.234741
[R_Toe2_03]
76 420.210846 0.000715 -0.000268 0.008233 73.608643 0.008233 420.210846
77 420.210846 0.000715 -0.000268 0.008233 73.609329 0.008233 420.210846
78 420.210846 0.000715 -0.000268 0.008233 73.610023 0.008233 420.210846
[R_Toe3_02]
76 329.270355 -0.000477 -0.000954 0.001184 -74.494476 0.001184 329.270355
77 329.270355 -0.000477 -0.000954 0.001184 -74.499290 0.001184 329.270355
78 329.270355 -0.000477 -0.000954 0.001184 -74.504128 0.001184 329.270355
[R_Toe3_03]
76 439.137939 0.000238 0.001431 -0.011507 83.245239 -0.008004 439.137939
77 439.137939 0.000238 0.001431 -0.011523 83.256279 -0.008020 439.137939
78 439.137939 0.000238 0.001431 -0.011539 83.267166 -0.008036 439.137939
[Rear_Leg02]
76 1162.777710 -0.029802 0.005960 0.072856 -2.854800 -108.633736 1162.777710
77 1162.777710 -0.029802 0.005960 0.137889 -2.923295 -111.337364 1162.777710
78 1162.777710 -0.029802 0.005960 0.201623 -2.947378 -113.611931 1162.777710
[Rear_Leg03]
76 607.192505 -0.013351 -0.073195 0.006549 -0.001868 60.057125 607.192505
77 607.192505 -0.013351 -0.073195 0.006541 -0.001897 60.560486 607.192505
78 607.192505 -0.013351 -0.073195 0.006532 -0.001926 61.063831 607.192505
[Rear_Leg04]
76 995.874512 -0.020504 -0.011921 -0.039385 -0.017925 50.330082 995.874573
77 995.874512 -0.020504 -0.011921 -0.039523 -0.017617 51.221909 995.874573
78 995.874512 -0.020504 -0.011921 -0.039655 -0.017308 52.113617 995.874573
[Rear_Foot]
76 3096.176270 -0.067472 -0.041425 -116.256226 87.366043 79.183960 3096.176270
77 3096.176270 -0.067472 -0.041425 -115.714836 87.355659 79.686760 3096.176270
78 3096.176270 -0.067472 -0.041425 -115.177521 87.344872 80.185081 3096.176270
[planeAlignerCenter]
76 -3.908848 -93.748627 -709.127441 11.741155 -0.001481 179.998184 715.308167
77 -2.546094 -72.440140 -728.868408 11.972196 -0.001478 179.998184 732.463806
78 -1.183339 -51.131649 -748.609497 12.039347 -0.001477 179.998184 750.354553
[Rear_Toe1_01]
76 0.653352 83.966492 -371.173737 0.477219 34.702114 90.729614 380.553192
77 0.653352 83.966492 -371.173737 0.429322 36.806396 90.643875 380.553192
78 0.653352 83.966492 -371.173737 0.376011 38.909897 90.553421 380.553192
[Rear_Toe2_01]
76 178.200760 -294.826019 -362.060547 -7.584059 29.626162 -68.277893 499.765686
77 178.200760 -294.826019 -362.060547 -7.539363 31.055649 -67.791222 499.765686
78 178.200760 -294.826019 -362.060547 -7.479591 32.484505 -67.295731 499.765686
[Rear_Toe3_01]
76 -153.359680 -308.780914 -362.060852 3.537431 28.136366 -111.217361 499.952881
77 -153.359680 -308.780914 -362.060852 3.530242 29.896456 -111.488182 499.952881
78 -153.359680 -308.780914 -362.060852 3.463481 31.198921 -111.836235 499.952881
[planeLockWeightCenter]
76 1000.000122 0.000305 -0.000099 -0.011814 -0.004373 -0.000015 1000.000122
77 1000.000122 0.000305 -0.000092 -0.011814 -0.004373 -0.000015 1000.000122
78 1000.000122 0.000305 -0.000086 -0.011814 -0.004373 -0.000015 1000.000122
[Rear_Toe1_02]
76 379.707825 0.194073 0.000477 -0.004350 -33.562763 0.003045 379.707855
77 379.707825 0.194073 0.000477 -0.001505 -33.431122 0.002185 379.707855
78 379.707825 0.194073 0.000477 0.001333 -33.299438 0.001334 379.707855
[Rear_Toe1_03]
76 500.129700 0.165701 0.000119 0.010498 77.162544 0.010498 500.129761
77 500.129700 0.165701 0.000119 0.000905 70.739365 0.002681 500.129761
78 500.129700 0.165701 0.000119 -0.004379 64.316086 -0.000792 500.129761
[Rear_Toe2_02]
76 340.494507 0.000238 -0.000954 0.001213 -60.763195 0.001213 340.494507
77 340.494507 0.000238 -0.000954 0.001205 -63.658627 0.001205 340.494507
78 340.494507 0.000238 -0.000954 0.001199 -66.155487 0.001199 340.494507
[Rear_Toe2_03]
76 433.103577 0.000000 0.000238 0.004148 57.095657 0.004148 433.103546
77 433.103577 0.000000 0.000238 0.004650 60.730827 0.004650 433.103546
78 433.103577 0.000000 0.000238 0.005290 64.362381 0.005290 433.103546
[Rear_Toe3_02]
76 340.494141 -0.000358 -0.000477 -0.002430 -56.000053 -0.002430 340.494171
77 340.494141 -0.000358 -0.000477 -0.002407 -59.655548 -0.002407 340.494171
78 340.494141 -0.000358 -0.000477 0.006829 -62.746983 -0.008012 340.494171
[Rear_Toe3_03]
76 433.103577 0.001431 -0.000238 0.000118 51.310276 -0.003591 433.103546
77 433.103577 0.001431 -0.000238 -0.000117 55.662182 -0.003777 433.103546
78 433.103577 0.001431 -0.000238 -0.000386 59.682159 -0.004009 433.103546
[Back_Bone]
76 1312.175781 -701.934692 0.000954 0.431662 -1.979044 -85.711166 1488.125488
77 1312.175781 -701.934692 0.000954 0.715519 -1.445629 -85.682838 1488.125488
78 1312.175781 -701.934692 0.000954 0.999586 -0.912361 -85.651894 1488.125488
[Head]
76 1406.159424 809.709290 0.001431 0.092471 -1.323709 7.683195 1622.625488
77 1406.159424 809.709290 0.001431 0.074120 -1.354103 7.700140 1622.625488
78 1406.159424 809.709290 0.001431 0.055760 -1.384491 7.717098 1622.625488
[Motor_Bone]
76 1158.364380 -417.834747 0.000477 -1.032262 -0.905211 -106.889610 1231.419434
77 1158.364380 -417.834747 0.000477 -2.189445 -0.665754 -106.652359 1231.419434
78 1158.364380 -417.834747 0.000477 -1.666450 -0.414009 -106.405983 1231.419434
[Ping_Mechanism]
76 1241.704834 -444.969330 2.463946 0.000103 -0.000053 82.120995 1319.027954
77 1238.892212 -443.861938 1.437616 0.000103 -0.000053 82.120995 1316.005127
78 1236.079468 -442.754578 0.411286 0.000103 -0.000053 82.120995 1312.982910
[BN_LookIK]
76 193.241119 1380.371704 -0.002861 0.000000 89.965736 -31.038179 1393.832153
77 193.241119 1380.371704 -0.002861 0.000000 89.965736 -31.038179 1393.832153
78 193.241119 1380.371704 -0.002861 0.000000 89.965736 -31.038179 1393.832153
[bottomMouth]
76 -435.092926 615.759399 -0.000954 -0.000022 0.000016 73.527184 753.966492
77 -435.092926 615.759399 -0.000954 -0.000022 0.000016 73.527184 753.966492
78 -435.092926 615.759399 -0.000954 -0.000022 0.000016 73.527184 753.966492
[L_Mouth01]
76 554.440979 7.658243 838.222046 150.204178 23.759130 109.605339 1005.027161
77 554.440979 7.658243 838.222046 150.204178 23.759130 109.605339 1005.027161
78 554.440979 7.658243 838.222046 150.204178 23.759130 109.605339 1005.027161
[L_mouthFront]
76 551.629089 934.514771 339.150421 0.000081 2.804060 79.119301 1136.941284
77 551.629089 934.514771 339.150421 0.000081 2.804060 79.119301 1136.941284
78 551.629089 934.514771 339.150421 0.000081 2.804060 79.119301 1136.941284
[mouthGun]
76 55.332661 1627.420898 0.000000 0.000023 0.000009 -11.038128 1628.361328
77 55.332661 1627.420898 0.000000 0.000023 0.000009 -11.038128 1628.361328
78 55.332661 1627.420898 0.000000 0.000023 0.000009 -11.038128 1628.361328
[R_Mouth01]
76 554.442383 7.659197 -838.223938 29.795891 -23.759109 109.605331 1005.029541
77 554.442383 7.659197 -838.223938 29.795891 -23.759109 109.605331 1005.029541
78 554.442383 7.659197 -838.223938 29.795891 -23.759109 109.605331 1005.029541
[R_mouthFront]
76 551.629089 934.514282 -339.151367 0.000029 -2.803930 79.119133 1136.941162
77 551.629089 934.514282 -339.151367 0.000029 -2.803930 79.119133 1136.941162
78 551.629089 934.514282 -339.151367 0.000029 -2.803930 79.119133 1136.941162
[TopMouth]
76 461.269867 -56.106091 -0.008583 -0.000059 -0.000268 92.025169 464.669525
77 461.269867 -56.106091 -0.008583 -0.000059 -0.000268 92.025169 464.669525
78 461.269867 -56.106091 -0.008583 -0.000059 -0.000268 92.025169 464.669525
[weapon_bone]
76 -987.239868 1448.372803 0.001431 0.000000 89.965736 -31.038221 1752.833740
77 -987.239868 1448.372803 0.001431 0.000000 89.965736 -31.038221 1752.833740
78 -987.239868 1448.372803 0.001431 0.000000 89.965736 -31.038221 1752.833740
